<?xml version="1.0" encoding="utf-8"?>
<svg width="1245px" height="1529.333px" viewBox="0 0 1245 1529.285" version="1.1" id="svg8" xmlns="http://www.w3.org/2000/svg">
  <path id="path22" style="fill-opacity: 1; fill-rule: nonzero; stroke: none; stroke-width: 0.352778; fill: rgb(253, 187, 48);" d="M 404.872 643.138 L 129.724 771.118 C 103.914 786.109 100.002 828.689 122.059 866.805 C 144.052 904.807 182.822 922.871 208.632 907.962 L 457.162 733.795 C 471.458 721.975 472.492 695.714 458.982 672.271 C 445.462 648.814 422.102 636.653 404.872 643.138 M 787.737 733.795 L 1036.27 907.962 C 1062.04 922.871 1100.85 904.807 1122.94 866.805 C 1144.84 828.689 1141.12 786.109 1115.21 771.118 L 840.01 643.138 C 822.789 636.653 799.494 648.814 785.942 672.271 C 772.423 695.672 773.523 721.975 787.737 733.795 M 570.207 798.9 L 543.508 1101.24 C 543.508 1131.17 578.463 1155.67 622.433 1155.67 C 666.476 1155.67 701.488 1131.17 701.488 1101.24 L 674.723 798.9 C 671.716 780.707 649.471 766.721 622.402 766.721 C 595.427 766.721 573.159 780.707 570.207 798.9 M 785.942 483.436 C 799.464 506.864 822.789 519.035 840.01 512.628 L 1115.21 384.502 C 1141.12 369.571 1144.84 327.017 1122.94 288.933 C 1100.85 250.81 1062.04 232.811 1036.27 247.761 L 787.737 422.064 C 773.523 433.747 772.423 460.016 785.942 483.436 M 458.973 483.436 C 472.5 459.984 471.458 433.747 457.162 422.064 L 208.632 247.761 C 182.822 232.811 144.052 250.81 122.059 288.933 C 100.002 327.017 103.914 369.571 129.724 384.502 L 404.872 512.628 C 422.102 519.035 445.47 506.848 458.973 483.436 M 570.207 356.792 L 543.508 54.44 C 543.508 24.553 578.463 0 622.433 0 C 666.476 0 701.488 24.553 701.488 54.44 L 674.723 356.792 C 671.716 375.002 649.471 389.058 622.402 389.058 C 595.427 389.058 573.159 375.002 570.207 356.792"/>
  <path id="path26" style="fill-opacity: 1; fill-rule: nonzero; stroke: none; stroke-width: 0.352778; fill: rgb(0, 125, 195);" d="M 607.659 1347.83 L 607.659 1371.94 L 608.372 1371.94 C 616.552 1359.04 630.04 1343.82 660.059 1343.82 C 683.417 1343.82 701.341 1356.44 708.966 1375.57 L 709.677 1375.57 C 716.244 1365.93 723.763 1358.61 732.157 1353.46 C 742.14 1347.33 753.185 1343.82 767.177 1343.82 C 798.774 1343.82 826.76 1365.65 826.76 1420.77 L 826.76 1525.29 L 778.553 1525.29 L 778.553 1428.05 C 778.553 1400.12 769.087 1383.95 749.358 1383.95 C 734.891 1383.95 724.382 1393.65 720.422 1405.57 C 719.052 1409.69 718.413 1415.3 718.413 1419.96 L 718.413 1525.29 L 670.242 1525.29 L 670.242 1424.15 C 670.242 1400.41 661.134 1383.95 641.676 1383.95 C 626.11 1383.95 616.364 1396.21 612.367 1406.69 C 610.665 1411.18 610.106 1416.34 610.106 1421.22 L 610.106 1525.29 L 561.881 1525.29 L 561.881 1347.83 L 607.659 1347.83 Z M 1075.5 1347.83 L 1075.5 1381.3 L 1076.84 1381.3 C 1085.66 1355.74 1106.67 1343.82 1125.14 1343.82 C 1129.77 1343.82 1132.32 1344.17 1136.04 1344.92 L 1136.04 1391.39 C 1131.6 1390.74 1127.5 1390.12 1121.76 1390.12 C 1100.87 1390.12 1086.31 1402.29 1082.64 1421.32 C 1081.87 1425.24 1081.57 1429.52 1081.57 1434.42 L 1081.57 1525.29 L 1032.08 1525.29 L 1032.08 1347.83 L 1075.5 1347.83 Z M 1203.22 1289.06 L 1203.22 1344.92 L 1245 1344.92 L 1245 1390.12 L 1203.22 1390.12 L 1203.22 1456.79 C 1203.22 1478.36 1208.7 1488.83 1225.04 1488.83 C 1232.74 1488.83 1238.37 1487.87 1243.27 1486.66 L 1243.88 1524.15 C 1237.31 1526.6 1223.35 1529.29 1209.17 1529.29 C 1192.49 1529.29 1178.57 1523.46 1170.12 1514.47 C 1160.44 1504.19 1155.92 1487.35 1155.92 1463.33 L 1155.92 1289.06 L 1203.22 1289.06 Z M 528.284 1525.29 L 480.318 1525.29 L 480.318 1289.06 L 528.284 1289.06 L 528.284 1525.29 Z M 400.398 1461.89 C 400.398 1465.17 400.114 1468.55 399.208 1471.5 C 395.495 1483.8 382.759 1494.19 366.837 1494.19 C 353.56 1494.19 343.013 1486.65 343.013 1470.71 C 343.013 1446.34 369.849 1439.6 400.398 1439.76 L 400.398 1461.89 Z M 448.317 1419.42 C 448.317 1379.2 431.141 1343.82 373.103 1343.82 C 343.291 1343.82 319.627 1352.2 306.727 1359.65 L 316.168 1391.97 C 327.974 1384.53 346.768 1378.37 364.567 1378.37 C 394.035 1378.29 398.855 1395.03 398.855 1405.77 L 398.855 1408.31 C 334.645 1408.21 294.086 1430.43 294.086 1475.72 C 294.086 1503.38 314.734 1529.29 350.634 1529.29 C 372.734 1529.29 391.217 1520.47 402.294 1506.35 L 403.379 1506.35 C 403.379 1506.35 410.715 1537.02 451.127 1525.29 C 449.005 1512.53 448.317 1498.92 448.317 1482.53 L 448.317 1419.42 Z M 53.059 1289.06 C 58.005 1314.08 72.103 1386.65 72.103 1386.65 C 78.006 1416.5 83.463 1447.79 87.56 1472.53 L 88.279 1472.53 C 92.279 1446.25 98.568 1421.36 105.29 1390.53 L 129.018 1289.06 L 181.511 1289.06 L 203.696 1393.15 C 209.522 1422.11 214.153 1444.41 217.796 1471.35 L 218.512 1471.35 C 222.521 1444.15 227.713 1420.92 233.442 1391.19 L 254.75 1289.06 L 305.133 1289.06 L 242.726 1525.29 C 202.969 1534.01 187.739 1518 182.263 1492.6 C 176.804 1467.19 166.145 1418.82 166.145 1418.82 C 160.681 1392.34 156.412 1373.66 153.412 1346.47 L 152.664 1346.47 C 148.396 1373.39 143.941 1392.26 137.303 1418.72 L 111.111 1525.29 C 70.524 1533.37 56.446 1521.39 48.633 1488.83 C 41.939 1460.93 0 1289.06 0 1289.06 L 53.059 1289.06 Z M 952.169 1461.89 C 952.169 1465.17 951.879 1468.55 950.98 1471.5 C 947.266 1483.8 934.528 1494.19 918.605 1494.19 C 905.327 1494.19 894.781 1486.65 894.781 1470.71 C 894.781 1446.34 921.618 1439.6 952.169 1439.76 L 952.169 1461.89 Z M 1000.1 1419.42 C 1000.1 1379.2 982.921 1343.82 924.872 1343.82 C 895.067 1343.82 871.407 1352.2 858.497 1359.65 L 867.949 1391.97 C 879.744 1384.53 898.551 1378.37 916.345 1378.37 C 945.79 1378.29 950.621 1395.03 950.621 1405.77 L 950.621 1408.31 C 886.42 1408.21 845.855 1430.43 845.855 1475.72 C 845.855 1503.38 866.514 1529.29 902.435 1529.29 C 924.519 1529.29 943.005 1520.47 954.061 1506.35 L 955.155 1506.35 C 955.155 1506.35 962.489 1537.02 1002.9 1525.29 C 1000.78 1512.53 1000.1 1498.92 1000.1 1482.53 L 1000.1 1419.42 Z"/>
</svg>